<?xml version="1.0" standalone="no"?>
<!DOCTYPE svg PUBLIC "-//W3C//DTD SVG 20010904//EN"
 "http://www.w3.org/TR/2001/REC-SVG-20010904/DTD/svg10.dtd">
<svg version="1.0" xmlns="http://www.w3.org/2000/svg"
 width="750.000000pt" height="750.000000pt" viewBox="0 0 750.000000 750.000000"
 preserveAspectRatio="xMidYMid meet">
<metadata>
Created by potrace 1.11, written by Peter Selinger 2001-2013
</metadata>
<g transform="translate(0.000000,750.000000) scale(0.100000,-0.100000)"
fill="#000000" stroke="none">
<path d="M3491 6908 c-183 -23 -393 -93 -621 -209 -179 -91 -271 -146 -615
-372 -159 -105 -344 -225 -410 -268 -274 -176 -564 -320 -760 -377 l-95 -27
-1 -110 c-5 -566 15 -952 72 -1405 54 -432 167 -918 299 -1283 l32 -87 869 0
869 0 12 28 c30 72 -12 260 -77 346 -51 68 -94 80 -353 101 -91 8 -137 30
-160 78 -11 23 -11 42 -2 95 9 56 8 74 -4 111 -10 28 -13 49 -7 59 7 12 2 21
-20 34 -33 20 -34 26 -14 75 23 55 19 70 -24 92 -36 19 -51 37 -51 63 0 5 28
40 63 76 70 74 101 116 109 148 3 11 -1 58 -8 105 -13 78 -13 89 7 154 l20 70
102 -6 c56 -4 126 -7 155 -8 l52 -1 0 95 0 95 35 0 35 0 0 -51 c0 -50 0 -50
22 -35 31 22 74 20 98 -4 19 -19 27 -40 32 -90 l3 -25 285 -16 c157 -10 326
-20 377 -23 l92 -6 -11 30 c-31 92 17 219 104 273 150 93 351 -9 361 -183 1
-22 5 -40 8 -40 3 0 268 202 590 449 l584 448 18 -41 c55 -123 79 -315 53
-434 -25 -119 -141 -303 -285 -450 -219 -225 -432 -306 -683 -258 -91 18 -215
65 -287 110 -52 33 -56 33 -77 18 -18 -14 -22 -30 -27 -93 -14 -172 -112 -400
-263 -604 -127 -172 -136 -191 -142 -293 -7 -134 27 -263 86 -326 15 -15 64
-46 110 -68 46 -22 98 -53 116 -69 l34 -29 852 2 853 3 39 110 c240 675 358
1463 362 2428 l1 339 -130 43 c-303 100 -528 221 -1099 587 -373 240 -547 344
-723 432 -347 173 -590 228 -862 194z m521 -95 c24 -21 23 -48 -3 -74 -22 -22
-55 -19 -76 9 -18 22 -16 39 7 62 24 24 47 25 72 3z m-187 -133 c27 -11 51
-23 53 -25 2 -2 -22 -62 -54 -134 l-56 -130 -32 13 c-176 76 -226 100 -226
108 0 9 31 83 79 190 l30 68 78 -34 c43 -19 100 -44 128 -56z m363 73 c32 -28
33 -82 2 -113 -44 -44 -130 -9 -130 54 0 63 80 100 128 59z m-931 -110 c13
-10 12 -13 -6 -23 -12 -6 -21 -18 -21 -28 -1 -16 -2 -16 -14 1 -7 9 -20 17
-28 17 -10 0 -14 11 -14 35 1 30 4 33 22 29 13 -3 25 0 30 8 6 10 9 8 12 -7 2
-11 10 -25 19 -32z m-397 -135 c11 -18 20 -28 20 -21 0 22 40 36 67 24 74 -34
32 -123 -88 -187 -26 -13 -27 -12 -64 43 -47 71 -56 122 -26 152 32 32 67 27
91 -11z m1810 -45 c73 -91 74 -92 54 -100 -9 -3 -25 -1 -36 6 -28 17 -88 -3
-88 -30 0 -10 -2 -19 -4 -19 -2 0 -11 -3 -20 -6 -13 -5 -16 3 -16 49 0 89 11
146 29 150 31 9 36 6 81 -50z m-382 -33 c24 0 25 -1 7 -20 -11 -12 -16 -29
-13 -44 5 -22 3 -23 -19 -13 -17 8 -27 7 -35 -1 -18 -18 -28 -14 -28 10 0 12
-7 29 -15 39 -15 15 -14 17 9 23 14 3 28 16 32 28 l7 23 15 -23 c8 -13 25 -22
40 -22z m-1159 -160 c22 0 22 -1 9 -22 -10 -15 -12 -30 -7 -43 12 -32 11 -34
-20 -25 -22 6 -33 4 -42 -6 -17 -21 -29 -17 -29 10 0 15 -10 32 -27 44 l-26
19 27 7 c16 4 31 17 37 33 l10 26 22 -22 c13 -11 34 -21 46 -21z m-734 -10 c3
-6 -7 -18 -24 -28 -17 -9 -31 -21 -31 -25 0 -4 29 -46 65 -94 69 -92 80 -129
48 -165 -38 -42 -123 -9 -123 49 0 29 35 73 57 73 8 0 -10 31 -41 72 -30 40
-52 76 -50 80 6 9 74 47 86 48 4 0 10 -5 13 -10z m1196 -68 c-16 -31 -153
-152 -288 -254 -7 -6 -18 1 -32 21 l-21 29 134 108 c166 134 245 171 207 96z
m467 16 c-3 -22 -7 -23 -113 -23 -106 0 -110 1 -113 23 -3 22 -2 22 113 22
115 0 116 0 113 -22z m379 -45 c2 -6 -12 -16 -31 -23 -20 -6 -36 -15 -36 -18
0 -4 27 -54 60 -112 33 -58 60 -115 60 -128 0 -32 -43 -72 -78 -72 -31 0 -67
28 -77 60 -8 26 14 72 43 86 37 18 36 20 -6 92 -23 38 -42 74 -44 81 -2 7 17
21 42 31 48 20 62 20 67 3z m596 -113 c4 0 4 14 1 30 -5 23 -3 30 10 30 15 0
20 -15 17 -50 -1 -9 15 -35 35 -59 27 -31 39 -39 45 -29 15 24 33 -10 34 -65
l0 -52 -39 3 c-38 3 -86 27 -86 42 0 4 10 10 22 14 22 5 21 7 -17 46 -26 27
-48 40 -66 40 -15 0 -32 7 -39 15 -10 12 -9 15 4 15 10 0 26 -5 36 -10 33 -18
32 7 -1 38 -21 19 -29 34 -24 43 6 9 15 4 35 -19 15 -18 29 -32 33 -32z
m-2105 -23 c2 -11 -8 -32 -23 -47 l-27 -28 28 -5 c22 -3 18 -4 -13 -6 -24 0
-43 2 -43 6 0 4 12 19 26 34 31 32 27 64 -6 54 -12 -4 -20 -2 -20 5 0 7 14 10
37 8 27 -2 39 -8 41 -21z m-229 -18 l23 -31 20 31 c13 21 28 31 44 31 30 0 30
-2 -5 -54 l-30 -43 35 -51 35 -52 -25 0 c-17 0 -33 11 -48 30 -12 17 -25 30
-29 30 -4 0 -16 -13 -26 -30 -13 -22 -25 -30 -45 -30 l-29 0 36 52 c38 57 39
46 -11 123 -16 24 -16 25 8 25 16 0 33 -11 47 -31z m1327 -124 c36 -55 5 -118
-57 -118 -40 0 -69 33 -69 79 0 62 92 91 126 39z m-1977 -51 c69 -36 130 -70
135 -75 6 -5 5 -18 -3 -33 l-13 -24 -131 68 c-81 42 -139 80 -154 99 l-24 31
32 0 c20 0 78 -24 158 -66z m1767 -69 c14 -25 27 -53 28 -62 2 -26 -19 -25
-33 1 -12 21 -17 23 -38 13 -16 -7 -22 -16 -17 -26 16 -38 16 -51 1 -51 -22 0
-82 109 -67 124 8 8 16 5 29 -13 15 -20 21 -22 39 -12 25 13 27 22 11 38 -12
12 -4 33 11 33 5 0 21 -20 36 -45z m988 -15 c28 0 28 0 11 -26 -14 -21 -15
-31 -6 -51 11 -24 10 -24 -20 -18 -22 5 -36 2 -49 -10 -18 -16 -19 -16 -26 11
-3 16 -16 37 -28 46 l-21 16 28 7 c20 6 30 15 34 37 l6 29 21 -21 c12 -11 35
-20 50 -20z m-1514 -16 c60 -40 68 -49 59 -65 -13 -24 -12 -24 -65 12 -25 17
-47 29 -49 27 -1 -1 -35 -70 -73 -152 -39 -82 -79 -158 -89 -168 -66 -66 -187
-16 -187 77 0 94 115 147 183 83 28 -25 22 -32 93 119 29 62 54 113 56 113 1
0 34 -21 72 -46z m642 -28 c-3 -22 0 -27 12 -23 27 11 18 -9 -10 -22 -26 -12
-26 -11 -20 22 7 38 -1 52 -21 36 -7 -6 -13 -7 -13 -2 0 16 13 24 35 21 16 -2
19 -9 17 -32z m-1452 10 c0 -17 -7 -20 -125 -42 -49 -9 -93 -20 -98 -24 -4 -3
-1 -49 7 -101 7 -52 12 -97 9 -101 -10 -17 -23 -5 -53 47 -17 30 -38 55 -46
55 -8 0 -14 6 -14 14 0 17 40 29 55 16 8 -7 10 4 5 41 -4 31 -3 52 4 56 11 7
210 50 239 52 9 1 17 -5 17 -13z m-720 -71 c44 -23 70 -62 70 -107 0 -78 -50
-128 -128 -128 -70 0 -130 70 -119 138 15 88 101 136 177 97z m2802 -163 c31
7 43 6 49 -4 15 -23 10 -28 -31 -34 -50 -8 -54 -14 -41 -61 12 -42 12 -40 -13
-45 -16 -2 -22 5 -29 40 -9 45 -14 47 -64 33 -27 -8 -32 -6 -36 10 -6 23 -3
25 46 34 28 6 36 11 33 24 -18 59 -18 69 1 73 14 3 21 -6 31 -38 l13 -42 41
10z m-508 27 c16 -15 -1 -21 -24 -9 -16 9 -25 9 -36 -1 -24 -19 -17 -57 14
-73 26 -15 26 -15 4 -16 -41 0 -62 18 -62 55 0 24 7 39 23 50 22 16 62 13 81
-6z m926 -26 c-1 -82 -56 -170 -131 -209 -23 -12 -30 -12 -33 -2 -30 96 10
194 96 237 62 31 68 28 68 -26z m-1622 2 c8 -18 19 -25 39 -25 l26 0 -22 -24
c-16 -17 -20 -30 -15 -50 6 -26 5 -26 -20 -15 -20 9 -32 9 -51 1 -24 -11 -25
-10 -25 20 0 17 -7 40 -17 50 -15 17 -15 18 11 18 19 0 30 7 38 25 6 14 14 25
18 25 4 0 12 -11 18 -25z m750 -9 c-3 -16 0 -27 9 -30 24 -10 31 -7 38 14 3
11 11 20 17 20 12 0 6 -49 -11 -93 -13 -33 -35 -26 -27 8 4 16 1 25 -10 29
-25 10 -31 7 -37 -14 -3 -11 -12 -20 -21 -20 -15 0 -14 6 19 98 8 23 27 13 23
-12z m-1485 -41 c35 -15 36 -16 32 -62 -3 -27 -7 -92 -11 -145 l-6 -96 -28 10
c-22 7 -30 17 -32 41 -3 26 -10 33 -51 50 -45 19 -48 19 -67 2 -17 -15 -24
-16 -50 -5 l-30 12 96 104 c53 57 100 104 104 104 4 0 24 -7 43 -15z m1267
-27 c-1 -7 -25 -31 -55 -53 -62 -45 -63 -51 -37 -154 l17 -65 60 -19 c70 -23
72 -24 59 -37 -6 -6 -33 -2 -73 10 l-64 20 -66 -58 -66 -59 -94 31 -95 31 -21
98 -22 97 74 67 75 67 85 -28 85 -28 56 46 c58 46 82 56 82 34z m322 -78 c-4
-34 -17 -44 -39 -30 -15 10 -15 11 -1 6 10 -3 20 -1 23 4 4 6 0 10 -7 10 -9 0
-9 3 2 10 13 9 13 11 0 21 -12 8 -12 9 5 7 15 -3 19 -10 17 -28z m-2152 -100
c18 0 11 -18 -10 -25 -13 -4 -20 -15 -20 -32 0 -26 0 -26 -21 -7 -12 10 -30
17 -41 16 -17 -3 -19 0 -13 15 9 22 9 33 1 54 -6 13 -2 16 17 12 14 -3 29 2
37 12 12 14 15 13 26 -14 7 -17 18 -31 24 -31z m1124 17 c60 -24 114 -50 120
-59 13 -21 -160 -474 -186 -489 -12 -7 -50 4 -140 39 -108 42 -123 50 -126 72
-2 20 150 433 174 471 10 17 49 9 158 -34z m1805 19 c15 -8 33 -21 40 -30 10
-12 9 -16 -7 -25 -43 -23 -98 -24 -146 -3 -25 12 -46 23 -46 27 0 3 15 14 33
25 38 23 87 26 126 6z m-3314 -124 c0 -22 5 -28 28 -30 16 -2 27 -9 27 -19 0
-12 -7 -14 -34 -9 -32 6 -35 5 -38 -20 -2 -15 -9 -29 -16 -32 -10 -3 -13 5
-10 29 2 28 -1 34 -20 39 -30 7 -24 25 7 25 13 0 26 7 28 15 11 37 14 42 21
36 4 -4 7 -20 7 -34z m590 -92 c27 0 28 -1 11 -19 -13 -14 -16 -28 -11 -51 6
-29 5 -30 -18 -25 -16 4 -35 0 -51 -10 -26 -17 -26 -17 -26 13 0 19 -8 35 -22
45 l-23 15 27 11 c16 6 30 21 34 36 l6 26 22 -20 c12 -12 35 -21 51 -21z
m1839 34 c9 -3 16 -13 16 -22 0 -12 -3 -13 -12 -4 -22 22 -57 14 -64 -13 -7
-27 10 -55 32 -55 8 0 14 -5 14 -11 0 -16 -52 -2 -67 18 -41 53 15 112 81 87z
m66 -50 c0 -30 37 -34 48 -4 4 11 12 16 18 12 16 -10 -14 -112 -33 -112 -11 0
-13 7 -8 29 5 23 2 29 -15 34 -16 4 -23 -1 -31 -20 -7 -19 -13 -23 -20 -16 -8
8 -6 26 6 62 17 52 35 60 35 15z m712 -95 l21 -17 -21 -6 c-12 -4 -22 -16 -22
-26 0 -24 -16 -34 -24 -15 -3 9 -18 15 -36 15 -28 0 -30 2 -20 20 6 12 8 30 5
40 -5 16 -2 20 18 20 14 0 31 7 38 17 13 15 14 14 17 -8 2 -13 13 -31 24 -40z
m-332 27 c0 -2 2 -11 6 -19 4 -10 -6 -16 -36 -21 -80 -13 -106 -83 -54 -145
33 -40 80 -42 123 -6 l30 26 12 -22 c14 -26 1 -39 -70 -71 -77 -35 -145 -5
-177 77 -27 73 -3 130 71 169 27 14 95 23 95 12z m-571 -111 l24 -12 -32 -11
c-24 -8 -31 -17 -31 -36 0 -31 -15 -34 -30 -6 -8 15 -17 18 -40 13 -33 -6 -36
-2 -18 26 9 15 9 26 0 46 -12 27 -12 27 18 23 21 -3 35 1 47 14 17 19 18 19
28 -12 6 -18 21 -38 34 -45z m294 67 c3 -4 3 -19 0 -35 -5 -27 -35 -38 -47
-18 -4 5 3 7 14 4 22 -6 28 12 8 20 -7 3 -4 6 7 7 20 1 20 1 1 15 -17 13 -17
15 -4 15 9 0 19 -3 21 -8z m-1717 -162 c9 -22 18 -40 20 -40 3 0 23 9 45 20
22 12 44 18 49 15 21 -13 8 -35 -30 -55 -22 -11 -40 -23 -40 -26 0 -2 9 -22
20 -44 20 -39 20 -39 0 -50 -17 -9 -22 -5 -41 32 -12 24 -23 44 -24 46 -2 2
-21 -6 -44 -17 -40 -21 -40 -21 -51 -1 -9 17 -5 22 30 40 22 11 40 22 40 24 0
2 -7 20 -15 40 -9 20 -13 41 -10 46 13 21 36 8 51 -30z m-705 -55 c25 -8 24
-22 -1 -30 -11 -3 -23 -17 -26 -31 -6 -23 -8 -24 -23 -9 -10 8 -30 15 -45 15
-24 0 -26 2 -16 21 7 11 9 32 5 46 -5 23 -4 25 19 21 17 -4 31 1 43 15 18 19
18 19 21 -11 2 -20 10 -33 23 -37z m1699 15 c11 -11 20 -25 20 -31 0 -6 13 3
29 20 36 38 69 40 110 5 58 -48 38 -113 -64 -214 l-65 -64 -66 64 c-75 75 -94
105 -94 154 0 26 7 40 31 60 37 31 72 33 99 6z"/>
<path d="M4610 6436 c0 -25 5 -36 14 -36 25 0 28 19 7 46 l-21 27 0 -37z"/>
<path d="M3944 5876 c-15 -12 -17 -19 -9 -41 14 -40 40 -54 61 -33 36 35 -12
103 -52 74z"/>
<path d="M2549 5334 c-33 -34 -33 -36 -15 -50 11 -8 28 -14 38 -14 15 0 18 8
18 50 0 28 -1 50 -3 50 -2 0 -19 -16 -38 -36z"/>
<path d="M3526 5294 l-60 -54 14 -68 c7 -37 16 -74 21 -83 4 -8 41 -26 82 -38
l75 -24 61 54 c34 29 61 57 61 61 0 4 -7 41 -17 83 l-16 75 -79 25 c-43 14
-80 25 -81 25 -1 -1 -29 -26 -61 -56z m187 -34 c52 -58 26 -156 -49 -180 -104
-35 -190 71 -139 170 9 17 17 30 18 30 1 0 20 6 41 14 50 17 92 6 129 -34z"/>
<path d="M3110 5240 c0 -9 39 -29 90 -45 45 -14 15 17 -35 36 -59 22 -55 22
-55 9z"/>
<path d="M2970 5069 c-34 -89 -59 -164 -54 -169 11 -10 224 -93 228 -89 8 12
128 331 125 333 -9 6 -221 86 -228 86 -4 0 -36 -72 -71 -161z"/>
<path d="M2977 4806 c-6 -15 11 -36 29 -36 14 0 27 28 18 41 -8 14 -41 11 -47
-5z"/>
<path d="M3461 4681 c-37 -37 -22 -88 42 -150 l36 -34 -4 99 c-3 97 -4 99 -29
102 -15 2 -33 -5 -45 -17z"/>
<path d="M3014 2638 c-4 -7 2 -18 14 -26 l22 -14 0 -454 c0 -448 0 -453 -21
-459 -12 -4 -19 -14 -17 -23 2 -13 16 -18 52 -20 61 -4 81 12 49 38 l-23 18 0
450 0 450 22 14 c32 21 14 38 -42 38 -27 0 -52 -5 -56 -12z"/>
<path d="M5124 2638 c-4 -7 2 -18 14 -26 l22 -14 0 -454 c0 -448 0 -453 -21
-459 -12 -4 -19 -14 -17 -23 2 -13 16 -18 52 -20 61 -4 81 12 49 38 l-23 18 0
450 0 450 22 14 c32 21 14 38 -42 38 -27 0 -52 -5 -56 -12z"/>
<path d="M5752 2639 c-24 -9 -22 -29 4 -29 12 0 14 -67 14 -465 0 -407 -2
-465 -15 -465 -8 0 -15 -9 -15 -20 0 -18 7 -20 55 -20 48 0 55 2 55 20 0 11
-7 20 -15 20 -13 0 -15 29 -14 208 l1 207 41 -204 c29 -148 37 -206 29 -209
-7 -2 -12 -12 -12 -23 0 -16 7 -19 55 -19 48 0 55 2 55 20 0 13 -7 20 -18 20
-16 0 -25 37 -71 276 l-54 277 53 188 c44 157 57 189 72 189 11 0 18 7 18 20
0 18 -7 20 -55 20 -48 0 -55 -3 -55 -19 0 -11 5 -21 11 -23 6 -2 -5 -56 -30
-143 l-40 -140 0 143 c-1 120 1 142 14 142 8 0 15 9 15 20 0 17 -6 20 -37 19
-21 0 -48 -4 -61 -10z"/>
<path d="M1256 2624 c-8 -20 -8 -948 0 -968 5 -12 21 -16 71 -16 55 0 67 4 88
25 l25 24 0 451 0 451 -25 24 c-21 21 -33 25 -88 25 -50 0 -66 -4 -71 -16z
m120 -38 c18 -14 19 -30 19 -446 0 -416 -1 -432 -19 -446 -11 -8 -32 -14 -48
-14 l-28 0 0 460 0 460 28 0 c16 0 37 -6 48 -14z"/>
<path d="M1663 2616 l-28 -24 0 -452 0 -452 28 -24 c31 -26 90 -32 118 -11 21
16 39 51 39 76 0 19 -6 21 -55 21 -48 0 -55 -3 -55 -19 0 -15 8 -21 33 -23 32
-3 32 -3 9 -16 -20 -11 -27 -11 -48 3 l-24 15 0 205 0 205 44 0 c36 0 46 -4
51 -21 4 -12 14 -19 23 -17 13 3 17 15 17 58 0 43 -4 55 -17 58 -9 2 -19 -5
-23 -17 -5 -17 -15 -21 -51 -21 l-44 0 0 205 0 205 24 15 c21 14 28 14 48 3
23 -12 22 -13 -12 -18 -22 -3 -35 -11 -35 -20 0 -12 13 -15 55 -15 52 0 55 2
58 26 2 17 -6 34 -24 52 -36 36 -91 37 -131 3z"/>
<path d="M2303 2616 l-28 -24 0 -452 0 -452 28 -24 c25 -21 37 -24 90 -22 l62
3 3 473 3 472 -27 25 c-36 34 -93 34 -131 1z m88 -26 c18 -10 19 -26 19 -442
0 -417 -1 -431 -18 -415 -36 32 -63 7 -36 -32 18 -24 3 -28 -20 -5 -14 14 -16
68 -16 444 l0 429 22 15 c27 19 24 19 49 6z"/>
<path d="M2620 2620 c0 -11 7 -20 15 -20 12 0 15 -63 17 -456 l3 -456 28 -24
c42 -36 98 -33 131 7 l26 31 0 449 c0 392 2 449 15 449 8 0 15 9 15 20 0 18
-7 20 -55 20 -48 0 -55 -2 -55 -20 0 -11 7 -20 15 -20 13 0 15 -57 15 -450 0
-444 0 -449 -21 -460 -16 -9 -26 -8 -45 5 l-24 15 0 445 c0 389 2 445 15 445
8 0 15 9 15 20 0 18 -7 20 -55 20 -48 0 -55 -2 -55 -20z"/>
<path d="M3294 2626 c-3 -8 -4 -31 -2 -52 2 -31 7 -39 23 -39 15 0 21 8 23 33
3 31 5 32 48 32 l44 0 -6 -37 c-47 -312 -131 -910 -127 -915 2 -5 44 -8 94 -8
l89 0 0 56 c0 52 -1 55 -22 52 -18 -2 -24 -11 -26 -35 -3 -32 -5 -33 -47 -33
-36 0 -42 3 -39 18 7 31 134 906 134 924 0 16 -10 18 -90 18 -68 0 -92 -3 -96
-14z"/>
<path d="M3657 2633 c-4 -3 -7 -217 -7 -475 0 -407 -2 -469 -15 -474 -8 -4
-15 -15 -15 -25 0 -16 8 -19 54 -19 62 0 80 15 48 41 -21 17 -22 24 -22 233
l0 216 44 0 c34 0 47 -5 59 -22 22 -34 39 -11 35 47 -3 51 -25 73 -35 36 -4
-18 -13 -21 -54 -21 l-49 0 0 216 0 215 48 -3 c45 -3 47 -4 50 -35 2 -25 8
-33 23 -33 16 0 19 7 19 55 l0 55 -88 0 c-49 0 -92 -3 -95 -7z"/>
<path d="M4057 2629 c-46 -27 -47 -42 -47 -505 0 -404 -1 -438 -17 -450 -28
-20 -3 -36 52 -32 51 3 73 25 36 35 -21 5 -21 10 -21 224 l0 219 45 0 45 0 0
-220 c0 -189 -2 -220 -15 -220 -8 0 -15 -9 -15 -20 0 -19 5 -21 57 -18 58 3
85 24 44 35 -21 5 -21 6 -21 458 l0 452 -26 27 c-28 28 -83 35 -117 15z m74
-39 c18 -10 19 -23 19 -220 l0 -210 -45 0 -45 0 0 204 c0 200 0 205 22 220 27
19 24 19 49 6z"/>
<path d="M4413 2616 l-28 -24 0 -452 0 -452 28 -24 c53 -45 137 -24 152 39 3
12 4 110 1 217 -6 235 -6 198 0 456 l5 211 -27 26 c-36 36 -91 37 -131 3z m88
-26 c18 -10 19 -23 19 -210 0 -187 -1 -200 -19 -210 -11 -5 -31 -10 -45 -10
l-26 0 0 204 c0 200 0 205 22 220 27 19 24 19 49 6z m0 -480 c18 -10 19 -23
19 -210 0 -191 -1 -200 -21 -210 -16 -9 -26 -8 -45 5 l-24 15 0 205 0 205 26
0 c14 0 34 -5 45 -10z"/>
<path d="M4795 2615 l-25 -24 0 -454 c0 -454 0 -455 -21 -460 -41 -11 -14 -32
41 -32 55 0 82 21 41 32 -21 5 -21 10 -21 219 0 207 1 214 20 214 11 0 20 -3
20 -7 0 -5 12 -99 26 -211 27 -199 27 -203 8 -217 -29 -21 -5 -37 51 -33 50 3
74 25 37 34 -17 5 -22 24 -40 162 -38 279 -38 264 -8 291 l26 24 0 219 0 219
-25 24 c-34 35 -96 35 -130 0z m95 -35 c19 -19 20 -33 20 -209 0 -212 -4 -225
-64 -219 l-31 3 -3 202 c-2 192 -1 204 18 223 25 25 35 25 60 0z"/>
<path d="M5423 2616 l-28 -24 0 -452 0 -452 28 -24 c31 -26 90 -32 118 -11 21
16 39 51 39 76 0 19 -6 21 -55 21 -48 0 -55 -3 -55 -19 0 -15 8 -21 33 -23 32
-3 32 -3 9 -16 -20 -11 -27 -11 -48 3 l-24 15 0 205 0 205 44 0 c36 0 46 -4
51 -21 4 -12 14 -19 23 -17 13 3 17 15 17 58 0 43 -4 55 -17 58 -9 2 -19 -5
-23 -17 -5 -17 -15 -21 -51 -21 l-44 0 0 205 0 205 24 15 c21 14 28 14 48 3
23 -12 22 -13 -12 -18 -22 -3 -35 -11 -35 -20 0 -12 13 -15 55 -15 52 0 55 2
58 26 2 17 -6 34 -24 52 -36 36 -91 37 -131 3z"/>
<path d="M2190 1433 c11 -16 83 -90 158 -167 147 -149 316 -296 479 -419 102
-77 348 -242 378 -253 13 -5 15 5 15 60 l0 66 30 0 29 0 3 117 3 117 75 53 75
53 3 -55 3 -56 79 56 79 56 3 -56 3 -55 78 55 c42 30 80 55 82 55 3 0 5 -49 5
-110 l0 -110 28 0 29 0 14 198 14 197 46 3 46 3 11 -178 c7 -98 12 -188 12
-200 0 -20 5 -23 35 -23 l35 0 0 -60 c0 -46 3 -60 15 -60 11 0 15 -17 17 -69
l3 -69 123 79 c152 97 353 246 497 369 111 94 425 406 425 421 0 5 -661 9
-1476 9 l-1475 0 21 -27z m1690 -118 c10 -12 7 -13 -22 -8 -29 4 -37 1 -51
-21 -20 -29 -67 -36 -87 -11 -10 12 -6 13 24 8 28 -4 41 0 66 21 36 30 52 32
70 11z"/>
<path d="M3360 750 l0 -60 65 0 65 0 0 60 0 60 -65 0 -65 0 0 -60z"/>
<path d="M3580 750 l0 -60 65 0 65 0 0 60 0 60 -65 0 -65 0 0 -60z"/>
<path d="M3800 750 l0 -60 65 0 65 0 0 60 0 60 -65 0 -65 0 0 -60z"/>
</g>
</svg>
